<svg width="592" height="642" viewBox="0 0 592 642" fill="none" xmlns="http://www.w3.org/2000/svg">
<g clip-path="url(#clip0)">
<path d="M541.3 119.598C509.578 119.598 529.622 119.405 487.982 119.598V128.742C499.079 133.799 499.854 143.153 499.854 158.517V173.703C499.854 189.083 499.273 198.421 487.982 203.477V212.621H540.912C571.278 212.621 591.516 194.317 591.516 167.079C591.5 137.111 569.905 119.598 541.3 119.598ZM538.377 196.676C533.321 196.676 531.56 191.425 531.56 185.577C531.56 181.877 531.367 173.121 531.367 164.171C531.367 155.415 531.56 146.465 531.56 142.959C531.56 136.933 532.917 134.591 536.422 134.591C549.069 134.591 555.885 151.521 555.885 167.677C555.901 182.459 550.248 196.676 538.377 196.676Z" fill="black"/>
<path d="M188.686 209.907C190.834 206.014 196.084 190.44 198.813 181.684L190.447 179.535C180.723 190.44 171.953 196.854 156.205 196.854H148.226C142.782 196.854 140.828 192.379 140.44 187.904C140.246 185.561 140.246 181.878 140.246 177.58C140.246 174.446 142.282 173.348 145.205 173.138C149.405 173.558 151.068 177.16 155.817 185.561H164.959V146.853H155.817C151.149 155.124 149.453 157.079 145.399 157.322C142.378 157.16 140.263 156.078 140.263 152.879C140.263 148.016 140.263 145.286 140.263 140.423C140.263 137.693 142.201 135.366 145.512 135.366H146.481C160.889 135.366 166.913 139.841 175.086 153.073L185.795 150.342C184.826 147.418 175.668 119.001 176.847 122.701C175.878 119.97 175.296 119.389 171.791 119.389C168.674 119.389 164.394 119.583 151.165 119.583C141.636 119.583 124.886 119.389 97.0723 119.389V128.533C108.169 133.783 108.944 143.137 108.944 158.501V173.687C108.944 189.067 108.362 198.405 97.0723 203.461V212.605H184.261C187.119 212.638 187.507 212.25 188.686 209.907Z" fill="black"/>
<path d="M252.503 136.53C252.503 140.035 247.253 147.434 244.911 151.134C243.555 153.283 242.763 154.446 240.437 151.328C238.095 148.21 232.264 140.617 232.264 136.53C232.264 132.442 234.8 129.712 239.468 127.386V119.599H183.809V128.743C190.625 132.054 194.324 136.53 197.812 141.005C205.985 151.328 213.77 162.41 217.275 168.84C219.02 171.958 219.811 175.076 219.811 178.566C219.811 191.022 218.648 200.553 206.97 203.478V212.622H264.375V203.478C252.697 200.553 251.34 191.409 251.34 178.954C251.146 175.06 252.891 170.585 255.233 166.498L264.181 150.536C269.042 141.974 277.797 134.187 287.343 128.743V119.599H245.315V127.386C250.758 129.906 252.503 132.636 252.503 136.53Z" fill="black"/>
<path d="M485.253 119.599H443.807V128.743C454.903 134.187 457.035 145.48 457.229 159.696C457.229 160.86 456.841 161.441 456.066 161.441C455.485 161.441 454.709 160.86 453.724 159.696C443.807 149.567 434.067 139.26 424.344 128.936C419.094 123.104 416.365 119.599 411.697 119.599H381.929V128.743C390.489 133.218 392.831 141.198 392.831 150.924C392.831 163.574 392.637 176.223 392.25 188.873C392.25 195.109 389.714 200.553 381.153 203.478V212.621H422.018V203.478C411.503 197.645 410.34 180.117 410.34 167.273C410.34 165.722 410.728 165.125 411.309 165.125C412.472 165.125 414.233 167.063 415.395 168.243C420.645 173.881 445.357 200.36 452.561 207.953C454.903 210.489 458.586 213.397 461.703 213.397C464.627 213.785 467.534 213.203 470.457 211.846C475.319 209.504 477.274 205.416 476.692 201.717C476.305 194.705 475.723 187.71 475.723 180.505L475.529 143.913C475.529 137.887 477.467 132.038 485.253 128.726V119.599Z" fill="black"/>
<path d="M78.1424 161.247C86.703 156.385 91.5647 149.761 91.5647 141.392C91.5647 125.818 77.351 119.405 61.1991 119.405H0.5V128.549C11.5964 133.799 12.3717 143.153 12.3717 158.517V173.703C12.3717 189.083 11.7902 198.421 0.5 203.478V212.622L57.7102 212.815C81.0659 212.815 97.9932 205.804 97.9932 186.741C97.9932 173.897 91.1771 166.514 78.1424 161.247ZM47.4053 134.591C56.7411 134.591 60.0523 139.26 60.0523 144.72C60.0523 150.956 55.772 154.446 47.9867 154.446C45.8385 154.446 43.9003 153.864 43.9003 151.716C43.9003 147.047 43.7065 142.378 43.7065 137.709C43.7065 135.172 44.6756 134.591 47.4053 134.591ZM49.7312 196.87C45.6447 196.87 43.7065 195.125 43.7065 190.844L43.9003 170.795C43.9003 169.438 44.6756 168.857 46.0485 168.857C57.9202 168.857 62.9758 176.256 62.9758 184.043C62.9596 191.038 59.8584 196.87 49.7312 196.87Z" fill="black"/>
<path d="M380.361 168.065C380.361 137.902 359.929 117.66 329.176 117.66C298.616 117.66 278.378 136.739 278.378 165.544C278.378 194.931 299.198 214.592 330.339 214.592C360.317 214.576 380.361 195.706 380.361 168.065ZM337.946 197.257C325.493 198.227 315.56 173.121 314.009 154.817C313.04 144.106 314.978 135.544 320.825 134.962C333.278 133.993 343.212 159.098 344.762 177.402C345.715 188.113 343.777 196.676 337.946 197.257Z" fill="black"/>
<path d="M366.067 40.873V56.0591C366.067 71.4391 365.486 80.7769 354.195 85.8336V94.9775H409.467V85.8336C400.519 81.7462 397.596 75.1225 397.596 67.3356C397.596 62.6667 398.371 59.9364 401.294 59.9364C413.166 59.9364 420.176 84.4603 419.385 94.9775H466.871V85.8336C457.148 83.1033 454.612 78.8221 451.495 71.8268L448.765 65.5908C442.74 51.9718 436.118 43.1994 423.859 40.2914C422.89 40.0976 423.277 39.3221 425.603 36.7857C435.133 25.8808 444.097 16.7369 460.443 10.9047V1.74463H411.599V10.8886C415.686 11.2763 418.222 13.6189 418.222 17.1246C418.222 22.3751 407.319 34.0555 399.534 41.4546C399.146 41.8424 398.759 42.0362 398.565 42.0362C397.596 42.0362 397.402 40.0976 397.402 39.1121V29.3865C397.402 21.5996 401.876 13.2311 408.886 10.8886V1.74463H354.195V10.8886C365.276 16.1553 366.067 25.4931 366.067 40.873Z" fill="black"/>
<path d="M508.317 79.42C495.477 79.42 481.457 70.0822 475.82 58.4018L465.692 60.9382C467.437 71.0677 470.36 81.181 470.748 91.3104C471.523 94.4284 473.284 95.7854 476.191 95.7854C479.308 95.7854 482.426 94.8161 485.527 94.8161C490.389 94.8161 498.174 96.9648 508.883 96.9648C533.208 96.9648 550.329 87.0454 550.329 66.011C550.329 47.1253 536.325 39.9362 516.474 32.7309C504.602 28.2558 497.205 26.301 497.205 21.826C497.205 17.3509 502.454 15.3961 506.347 15.3961C519.769 15.3961 530.284 26.6887 536.115 37.1898L546.436 34.6534C544.885 27.6419 542.931 18.8857 541.187 11.0988C539.248 4.66891 539.038 0.77546 533.401 0.77546C528.54 0.77546 527.958 1.93865 522.693 1.93865C516.668 1.93865 510.433 0 501.679 0C481.441 0 467.824 12.262 467.824 30.7599C467.824 46.9153 478.339 54.7022 493.118 60.5343C506.928 65.591 516.668 67.5458 516.668 73.5718C516.684 77.8529 513.179 79.42 508.317 79.42Z" fill="black"/>
<path d="M139.148 69.0965C139.148 56.253 132.332 48.8538 119.298 43.6033C127.858 38.7405 132.72 32.1168 132.72 23.7483C132.72 8.17444 118.506 1.76074 102.354 1.76074H41.6553V10.9047C52.7517 16.1552 53.527 25.5092 53.527 40.873V56.0591C53.527 71.439 52.9455 80.7769 41.6553 85.8335V94.9775L98.8655 95.1713C122.221 95.1875 139.148 88.176 139.148 69.0965ZM88.5606 16.9307C97.8964 16.9307 101.208 21.5996 101.208 27.0601C101.208 33.2961 96.9273 36.7857 89.142 36.7857C86.9938 36.7857 85.0556 36.2041 85.0556 34.0554C85.0556 29.3865 84.8618 24.7176 84.8618 20.0487C84.8618 17.5123 85.8309 16.9307 88.5606 16.9307ZM84.8618 73.1838L85.0556 53.135C85.0556 51.7779 85.8309 51.1963 87.2038 51.1963C99.0755 51.1963 104.131 58.5955 104.131 66.3824C104.131 73.3938 101.014 79.226 90.9026 79.226C86.8 79.226 84.8618 77.465 84.8618 73.1838Z" fill="black"/>
<path d="M195.001 96.9325C224.963 96.9325 245.008 78.0468 245.008 50.4049C245.008 20.2427 224.576 0 193.822 0C163.263 0 143.024 19.0795 143.024 47.8846C143.041 77.2713 163.86 96.9325 195.001 96.9325ZM185.472 17.3186C197.925 16.3493 207.858 41.4548 209.409 59.7589C210.378 70.4699 208.44 79.0323 202.593 79.6139C190.14 80.5832 180.206 55.4777 178.656 37.1736C177.687 26.4787 179.625 17.9002 185.472 17.3186Z" fill="black"/>
<path d="M304.173 96.9325C334.135 96.9325 354.18 78.0468 354.18 50.4049C354.18 20.2427 333.748 0 302.994 0C272.435 0 252.196 19.0795 252.196 47.8846C252.212 77.2713 273.032 96.9325 304.173 96.9325ZM294.644 17.3186C307.097 16.3493 317.03 41.4548 318.581 59.7589C319.55 70.4699 317.612 79.0323 311.765 79.6139C299.312 80.5832 289.378 55.4777 287.827 37.1736C286.858 26.4787 288.797 17.9002 294.644 17.3186Z" fill="black"/>
<path d="M261.854 553.048C259.512 547.604 257.38 545.261 253.488 545.261C251.743 545.261 249.789 545.649 247.253 546.424C238.499 549.736 232.07 551.481 213.399 556.942V566.086C222.734 568.024 225.27 569.785 225.27 572.515C225.27 574.26 224.495 576.215 223.332 579.333L209.328 613.582C206.405 620.788 202.9 627.993 194.146 630.901V640.045H234.816V631.095C228.985 629.932 224.899 626.62 224.899 622.145C224.899 618.833 227.435 616.119 231.715 616.119H250.015C252.939 616.119 254.295 618.268 254.295 620.788C254.295 625.069 250.79 628.769 242.811 631.111V640.061H298.471V630.917C294.578 627.218 291.267 622.355 288.748 616.313L261.854 553.048ZM242.585 600.335H236.157C233.427 600.335 232.652 599.947 232.652 598.784C232.652 596.054 237.32 585.553 238.676 583.404C239.452 582.435 240.033 582.435 240.825 583.21C242.763 585.747 246.849 595.085 246.849 598.784C246.865 599.947 245.703 600.335 242.585 600.335Z" fill="black"/>
<path d="M177.59 588.655C186.15 583.792 191.012 577.169 191.012 568.8C191.012 553.226 176.798 546.812 160.646 546.812H99.9473V555.956C111.044 561.207 111.819 570.561 111.819 585.925V601.111C111.819 616.491 111.237 625.829 99.9473 630.885V640.029L157.157 640.223C180.513 640.223 197.44 633.212 197.44 614.148C197.44 601.321 190.624 593.922 177.59 588.655ZM146.836 561.999C156.172 561.999 159.483 566.668 159.483 572.128C159.483 578.364 155.203 581.854 147.418 581.854C145.27 581.854 143.331 581.272 143.331 579.123C143.331 574.454 143.138 569.785 143.138 565.117C143.138 562.58 144.123 561.999 146.836 561.999ZM149.178 624.278C145.092 624.278 143.154 622.533 143.154 618.252L143.348 598.203C143.348 596.846 144.123 596.264 145.496 596.264C157.367 596.264 162.423 603.663 162.423 611.45C162.407 618.446 159.29 624.278 149.178 624.278Z" fill="black"/>
<path d="M394.575 616.878C393.413 614.729 387.372 602.661 384.448 598.978C381.912 596.054 378.811 593.533 375.112 592.548C374.337 592.354 374.337 591.966 375.694 591.579C384.448 589.43 391.071 581.449 391.071 570.561C391.071 553.823 378.036 546.618 359.348 546.618C349.027 546.618 303.495 546.618 299.021 546.812V555.956C310.117 561.207 310.892 570.56 310.892 585.924V601.11C310.892 616.49 309.535 625.828 301.169 630.885V640.029H351.967V630.885C344.957 626.798 342.049 620.174 342.049 612.387C342.049 608.106 342.825 603.437 346.523 603.437C356.053 603.437 364.032 632.242 362.482 640.029H408.014V630.885C400.213 628.171 398.064 623.696 394.575 616.878ZM347.476 587.104C345.134 587.104 343.196 585.747 342.808 583.21C342.421 580.868 342.227 577.378 342.227 573.678C342.227 570.56 342.421 567.442 342.808 565.116C343.002 563.177 343.584 562.386 345.15 562.386C351.385 562.386 355.859 569.01 355.859 575.229C355.843 580.674 353.695 587.104 347.476 587.104Z" fill="black"/>
<path d="M458.198 577.766C446.326 573.485 438.929 571.336 438.929 566.861C438.929 562.386 444.178 560.431 448.071 560.431C461.493 560.431 472.008 571.724 477.839 582.225L488.16 579.689C486.609 572.677 484.655 563.921 482.91 556.134C480.972 549.704 480.762 545.811 475.125 545.811C470.263 545.811 469.682 546.974 464.416 546.974C458.392 546.974 452.157 545.035 443.403 545.035C423.164 545.035 409.548 557.297 409.548 575.795C409.548 591.951 420.063 599.737 434.842 605.376C448.652 610.626 458.392 612.581 458.392 618.607C458.392 622.888 454.887 624.439 450.025 624.439C437.184 624.439 423.164 615.101 417.527 603.421L407.416 605.957C409.16 616.087 412.084 626.2 412.472 636.329C413.247 639.447 415.007 640.804 417.915 640.804C421.032 640.804 424.149 639.835 427.251 639.835C432.112 639.835 439.898 641.984 450.606 641.984C474.931 641.984 492.052 632.064 492.052 611.03C492.068 592.161 478.049 584.971 458.198 577.766Z" fill="black"/>
<path d="M160.938 231.312L107.379 518.942L159.081 528.574L212.64 240.944L160.938 231.312Z" fill="black"/>
<path d="M277.118 233.656H224.527V526.23H277.118V233.656Z" fill="black"/>
<path d="M346.281 233.656H293.69V526.23H346.281V233.656Z" fill="black"/>
<path d="M415.46 233.656H362.869V526.23H415.46V233.656Z" fill="black"/>
<path d="M484.622 233.656H432.031V526.23H484.622V233.656Z" fill="black"/>
</g>
<defs>
<clipPath id="clip0">
<rect width="591" height="642" fill="white" transform="translate(0.5)"/>
</clipPath>
</defs>
</svg>
